<svg width="125" height="125" viewBox="0 0 125 125" fill="none" xmlns="http://www.w3.org/2000/svg">
<path d="M55.575 40.4352C54.6854 39.9216 53.6763 39.6513 52.6491 39.6515C51.6219 39.6516 50.6128 39.9223 49.7234 40.4361C48.834 40.95 48.0955 41.6891 47.5824 42.5789C47.0692 43.4687 46.7994 44.478 46.8 45.5052V79.3026C46.7994 80.3298 47.0692 81.3391 47.5824 82.2289C48.0955 83.1188 48.834 83.8578 49.7234 84.3717C50.6128 84.8856 51.6219 85.1562 52.6491 85.1564C53.6763 85.1565 54.6854 84.8862 55.575 84.3726L87.75 65.7774C88.3428 65.4351 88.8351 64.9428 89.1774 64.3499C89.5197 63.7571 89.6999 63.0846 89.6999 62.4C89.6999 61.7155 89.5197 61.043 89.1774 60.4501C88.8351 59.8572 88.3428 59.3649 87.75 59.0226L55.575 40.4352ZM0 62.4C0 45.8505 6.57427 29.9788 18.2765 18.2765C29.9788 6.57427 45.8505 0 62.4 0C78.9495 0 94.8212 6.57427 106.523 18.2765C118.226 29.9788 124.8 45.8505 124.8 62.4C124.8 78.9495 118.226 94.8212 106.523 106.523C94.8212 118.226 78.9495 124.8 62.4 124.8C45.8505 124.8 29.9788 118.226 18.2765 106.523C6.57427 94.8212 0 78.9495 0 62.4ZM62.4 7.8C55.2298 7.8 48.1299 9.21227 41.5055 11.9562C34.8811 14.7001 28.8621 18.7219 23.792 23.792C18.7219 28.8621 14.7001 34.8811 11.9562 41.5055C9.21227 48.1299 7.8 55.2298 7.8 62.4C7.8 69.5702 9.21227 76.6702 11.9562 83.2945C14.7001 89.9189 18.7219 95.938 23.792 101.008C28.8621 106.078 34.8811 110.1 41.5055 112.844C48.1299 115.588 55.2298 117 62.4 117C76.8808 117 90.7686 111.248 101.008 101.008C111.248 90.7686 117 76.8808 117 62.4C117 47.9192 111.248 34.0315 101.008 23.792C90.7686 13.5525 76.8808 7.8 62.4 7.8Z" fill="white"/>
</svg>
