<svg width="27" height="27" viewBox="0 0 27 27" fill="none" xmlns="http://www.w3.org/2000/svg">
<path d="M12.0234 8.748C11.831 8.63688 11.6127 8.5784 11.3904 8.57844C11.1682 8.57847 10.9499 8.63703 10.7575 8.7482C10.565 8.85938 10.4053 9.01927 10.2943 9.21178C10.1832 9.40429 10.1249 9.62264 10.125 9.84488V17.1568C10.1249 17.379 10.1832 17.5974 10.2943 17.7899C10.4053 17.9824 10.565 18.1423 10.7575 18.2535C10.9499 18.3647 11.1682 18.4232 11.3904 18.4233C11.6127 18.4233 11.831 18.3648 12.0234 18.2537L18.9844 14.2307C19.1126 14.1566 19.2191 14.0501 19.2932 13.9219C19.3672 13.7936 19.4062 13.6481 19.4062 13.5C19.4062 13.3519 19.3672 13.2064 19.2932 13.0781C19.2191 12.9499 19.1126 12.8434 18.9844 12.7693L12.0234 8.748ZM0 13.5C0 9.91958 1.42232 6.4858 3.95406 3.95406C6.4858 1.42232 9.91958 0 13.5 0C17.0804 0 20.5142 1.42232 23.0459 3.95406C25.5777 6.4858 27 9.91958 27 13.5C27 17.0804 25.5777 20.5142 23.0459 23.0459C20.5142 25.5777 17.0804 27 13.5 27C9.91958 27 6.4858 25.5777 3.95406 23.0459C1.42232 20.5142 0 17.0804 0 13.5ZM13.5 1.6875C11.9488 1.6875 10.4127 1.99304 8.97955 2.58667C7.54639 3.18031 6.24419 4.05041 5.1473 5.1473C4.05041 6.24419 3.18031 7.54639 2.58667 8.97955C1.99304 10.4127 1.6875 11.9488 1.6875 13.5C1.6875 15.0512 1.99304 16.5873 2.58667 18.0204C3.18031 19.4536 4.05041 20.7558 5.1473 21.8527C6.24419 22.9496 7.54639 23.8197 8.97955 24.4133C10.4127 25.007 11.9488 25.3125 13.5 25.3125C16.6329 25.3125 19.6374 24.068 21.8527 21.8527C24.068 19.6374 25.3125 16.6329 25.3125 13.5C25.3125 10.3671 24.068 7.36257 21.8527 5.1473C19.6374 2.93203 16.6329 1.6875 13.5 1.6875Z" fill="#F6A51B"/>
</svg>
